<svg width="14" height="26" fill="none" xmlns="http://www.w3.org/2000/svg"><path d="M8.365 1.633l.154.025h2.123v2.45H8.519c-.12 0-.235.008-.346.025a.711.711 0 00-.268.089 1.585 1.585 0 00-.346.293.799.799 0 00-.153.319l-.026.128-.013.09V8.98h4.145l-.589 2.449H7.367v12.245H4.912V11.429H1.637v-2.45h3.275v-3.8c0-.528.068-1 .204-1.416.137-.417.32-.744.55-.982a5.1 5.1 0 01.704-.613c.239-.17.503-.289.793-.357.29-.068.52-.115.69-.14.171-.026.342-.038.512-.038zm0-1.633c-1.057 0-2.004.255-2.84.765-1.5.902-2.25 2.373-2.25 4.414v2.168H1.636c-.443 0-.827.162-1.151.485A1.567 1.567 0 000 8.98v2.449c0 .442.162.825.486 1.148.324.323.708.484 1.151.484h1.637v10.587c0 .46.158.846.474 1.161.315.315.703.472 1.164.472h2.455c.444 0 .828-.157 1.152-.472.324-.315.486-.702.486-1.16V13.06h1.918a1.6 1.6 0 00.998-.331c.29-.221.486-.502.588-.842l.563-2.45a1.556 1.556 0 00-.256-1.44 1.546 1.546 0 00-1.304-.651H9.005V5.74h1.637c.443 0 .827-.162 1.151-.485.324-.323.486-.706.486-1.148V1.658c0-.459-.158-.846-.473-1.16a1.554 1.554 0 00-1.139-.472H8.57A.843.843 0 008.365 0z" fill="#fff"/></svg>