<svg width="26" height="26" fill="none" xmlns="http://www.w3.org/2000/svg"><path d="M12.64 6.573a6.067 6.067 0 106.068 6.067 6.074 6.074 0 00-6.068-6.067zm0 10.112a4.045 4.045 0 110-8.089 4.045 4.045 0 010 8.09zM18.202 0H7.08A7.087 7.087 0 000 7.079v11.123a7.087 7.087 0 007.079 7.079h11.123a7.086 7.086 0 007.079-7.079V7.08A7.086 7.086 0 0018.202 0zm5.056 18.202a5.062 5.062 0 01-5.056 5.056H7.08a5.062 5.062 0 01-5.057-5.056V7.08A5.062 5.062 0 017.08 2.022h11.123a5.062 5.062 0 015.056 5.057v11.123zM20.73 6.067a1.517 1.517 0 11-3.033 0 1.517 1.517 0 013.033 0z" fill="#fff"/></svg>