<svg width="28" height="26" fill="none" xmlns="http://www.w3.org/2000/svg"><path d="M26.959.447a1.754 1.754 0 00-1.83-.319L1.421 9.668a1.81 1.81 0 00-.872.745 1.877 1.877 0 00.19 2.199c.26.296.606.498.987.576l6.228 1.276v7.92c0 .364.105.72.302 1.023.198.304.479.54.807.68a1.766 1.766 0 001.96-.401l3.503-3.588 5.24 4.722a1.759 1.759 0 001.739.37c.297-.096.564-.271.775-.506.21-.236.358-.524.426-.835l4.831-21.595a1.88 1.88 0 00-.043-.986 1.84 1.84 0 00-.536-.821zM1.823 11.405a.249.249 0 01.033-.164.24.24 0 01.13-.104L21.82 3.155l-13.274 9.82-6.518-1.335a.236.236 0 01-.145-.079.247.247 0 01-.06-.156zM9.935 22.57a.255.255 0 01-.28.057.26.26 0 01-.116-.097.268.268 0 01-.043-.146v-6.821l3.872 3.49-3.433 3.517zm11.27.926a.266.266 0 01-.172.192.251.251 0 01-.249-.053L9.96 13.878 26.014 2.002l-4.81 21.494z" fill="#fff"/></svg>