<svg width="34" height="34" fill="none" xmlns="http://www.w3.org/2000/svg"><path d="M8.653 30.706c0-.569.19-1.184-.048-1.611-.236-.38-.9-.521-1.374-.758-2.511-1.327-4.454-3.222-5.45-5.876-.426-1.042-.568-2.227-.757-3.364-.19-1.138-.237-2.275-.285-3.412-.094-2.464.19-4.928.711-7.345.284-1.374.995-2.559 1.848-3.601C4.625 3.08 6.236 1.706 8.274 1.042 9.458.663 10.69.474 11.923.332 13.58.142 15.287 0 16.944 0c1.659 0 3.317.142 4.976.284 1.09.095 2.18.285 3.27.522 1.895.426 3.459 1.516 4.833 2.843 1.327 1.28 2.417 2.795 2.796 4.644.568 2.7.9 5.402.663 8.15a58.338 58.338 0 01-.616 4.928c-.332 1.896-1.374 3.364-2.7 4.691-1.375 1.422-2.939 2.56-4.93 2.986-1.515.331-3.08.474-4.595.663-.806.095-1.659.142-2.512.142-.948 0-1.943-.047-2.89-.047-.237 0-.57.142-.759.331-1.09 1.09-2.085 2.18-3.127 3.27-.758.758-1.8.806-2.37.048-.236-.332-.331-.806-.379-1.185 0-.569.048-1.043.048-1.564zm1.327-1.469v2.843c0 .142.094.332.19.38.094.047.284-.095.378-.19.095-.048.142-.142.237-.237 1.611-1.659 3.175-3.27 4.786-4.88.19-.19.474-.332.758-.332 2.275 0 4.55-.19 6.824-.474 1.327-.19 2.559-.522 3.649-1.375 1.421-1.137 2.748-2.369 3.08-4.217.331-1.753.521-3.554.616-5.355.047-1.469-.142-2.985-.285-4.454-.142-1.564-.52-3.08-1.658-4.36-1.137-1.279-2.417-2.463-4.17-2.795a37.488 37.488 0 00-5.165-.616c-2.843-.142-5.734-.048-8.53.474-3.032.521-5.117 2.274-6.16 5.117-.474 1.28-.568 2.701-.663 4.076a39.689 39.689 0 00.095 5.307c.047 1.042.19 2.132.568 3.127.853 2.322 2.56 3.839 4.834 4.739.426.19.616.379.616.853-.048.71 0 1.564 0 2.37z" fill="#fff"/><path d="M18.462 19.144c.19-.095.426-.19.616-.331.236-.19.379-.474.616-.664.474-.474 1.042-.663 1.61-.332 1.043.711 2.086 1.422 3.08 2.228.38.284.522.71.285 1.184-.521 1.185-1.28 2.133-2.606 2.512-.19.047-.38.047-.569 0-4.407-1.564-8.103-4.028-10.567-8.103-.853-1.374-1.469-2.89-2.18-4.36-.379-.71-.236-1.374.19-2.037a4.932 4.932 0 011.99-1.706c.474-.237.995-.19 1.327.237a33.957 33.957 0 012.132 2.985c.474.758.237 1.374-.426 1.943-.142.095-.237.19-.38.284-.426.332-.52.758-.33 1.232.805 2.227 2.274 3.886 4.548 4.739.19.095.38.095.664.19zm6.824-4.36c0 .142.095.332.047.474-.095.19-.237.474-.426.521-.143.048-.474-.237-.522-.379-.142-.474-.142-.947-.19-1.421-.189-2.796-2.321-5.45-5.022-6.113-.569-.142-1.185-.19-1.8-.284-.143 0-.238-.048-.38-.048-.332-.047-.569-.142-.569-.521.048-.427.38-.521.711-.521 3.649.142 6.776 2.227 7.819 5.97.19.758.284 1.564.38 2.322 0-.047 0 0-.048 0z" fill="#fff"/><path d="M23.248 14.263c-.048.095 0 .285-.095.38-.142.142-.332.331-.521.331-.143 0-.38-.237-.38-.379-.142-.521-.142-1.137-.284-1.658-.474-1.801-1.99-3.033-3.886-3.223-.189 0-.331-.047-.52-.094-.285-.048-.475-.237-.427-.522.047-.331.284-.473.568-.473 2.796.19 5.166 1.942 5.497 5.022 0 .143.048.38.048.616z" fill="#fff"/><path d="M18.367 10.757c1.611.048 2.843 1.422 2.748 2.938 0 .332-.142.616-.474.569-.19-.047-.379-.284-.568-.474-.048-.047 0-.142 0-.19-.237-1.232-.569-1.563-1.848-1.8-.332-.048-.569-.237-.569-.569.047-.332.284-.474.616-.474h.095z" fill="#fff"/></svg>